<svg id="visual" viewBox="0 0 900 600" width="900" height="600" xmlns="http://www.w3.org/2000/svg" xmlns:xlink="http://www.w3.org/1999/xlink" version="1.1"><path d="M0 199L13.7 203C27.3 207 54.7 215 82 214C109.3 213 136.7 203 163.8 196C191 189 218 185 245.2 183C272.3 181 299.7 181 327 177C354.3 173 381.7 165 409 166C436.3 167 463.7 177 491 181C518.3 185 545.7 183 573 180C600.3 177 627.7 173 654.8 167C682 161 709 153 736.2 156C763.3 159 790.7 173 818 178C845.3 183 872.7 179 886.3 177L900 175L900 0L886.3 0C872.7 0 845.3 0 818 0C790.7 0 763.3 0 736.2 0C709 0 682 0 654.8 0C627.7 0 600.3 0 573 0C545.7 0 518.3 0 491 0C463.7 0 436.3 0 409 0C381.7 0 354.3 0 327 0C299.7 0 272.3 0 245.2 0C218 0 191 0 163.8 0C136.7 0 109.3 0 82 0C54.7 0 27.3 0 13.7 0L0 0Z" fill="#6198ff"></path><path d="M0 379L13.7 381C27.3 383 54.7 387 82 386C109.3 385 136.7 379 163.8 372C191 365 218 357 245.2 359C272.3 361 299.7 373 327 379C354.3 385 381.7 385 409 384C436.3 383 463.7 381 491 383C518.3 385 545.7 391 573 387C600.3 383 627.7 369 654.8 365C682 361 709 367 736.2 371C763.3 375 790.7 377 818 378C845.3 379 872.7 379 886.3 379L900 379L900 173L886.3 175C872.7 177 845.3 181 818 176C790.7 171 763.3 157 736.2 154C709 151 682 159 654.8 165C627.7 171 600.3 175 573 178C545.7 181 518.3 183 491 179C463.7 175 436.3 165 409 164C381.7 163 354.3 171 327 175C299.7 179 272.3 179 245.2 181C218 183 191 187 163.8 194C136.7 201 109.3 211 82 212C54.7 213 27.3 205 13.7 201L0 197Z" fill="#2d77ff"></path><path d="M0 469L13.7 471C27.3 473 54.7 477 82 479C109.3 481 136.7 481 163.8 478C191 475 218 469 245.2 471C272.3 473 299.7 483 327 485C354.3 487 381.7 481 409 480C436.3 479 463.7 483 491 488C518.3 493 545.7 499 573 495C600.3 491 627.7 477 654.8 474C682 471 709 479 736.2 483C763.3 487 790.7 487 818 483C845.3 479 872.7 471 886.3 467L900 463L900 377L886.3 377C872.7 377 845.3 377 818 376C790.7 375 763.3 373 736.2 369C709 365 682 359 654.8 363C627.7 367 600.3 381 573 385C545.7 389 518.3 383 491 381C463.7 379 436.3 381 409 382C381.7 383 354.3 383 327 377C299.7 371 272.3 359 245.2 357C218 355 191 363 163.8 370C136.7 377 109.3 383 82 384C54.7 385 27.3 381 13.7 379L0 377Z" fill="#005de8"></path><path d="M0 601L13.7 601C27.3 601 54.7 601 82 601C109.3 601 136.7 601 163.8 601C191 601 218 601 245.2 601C272.3 601 299.7 601 327 601C354.3 601 381.7 601 409 601C436.3 601 463.7 601 491 601C518.3 601 545.7 601 573 601C600.3 601 627.7 601 654.8 601C682 601 709 601 736.2 601C763.3 601 790.7 601 818 601C845.3 601 872.7 601 886.3 601L900 601L900 461L886.3 465C872.7 469 845.3 477 818 481C790.7 485 763.3 485 736.2 481C709 477 682 469 654.8 472C627.7 475 600.3 489 573 493C545.7 497 518.3 491 491 486C463.7 481 436.3 477 409 478C381.7 479 354.3 485 327 483C299.7 481 272.3 471 245.2 469C218 467 191 473 163.8 476C136.7 479 109.3 479 82 477C54.7 475 27.3 471 13.7 469L0 467Z" fill="#004cbb"></path></svg>