<svg id="visual" viewBox="0 0 900 600" width="900" height="600" xmlns="http://www.w3.org/2000/svg" xmlns:xlink="http://www.w3.org/1999/xlink" version="1.1"><rect x="0" y="0" width="900" height="600" fill="#140021"></rect><path d="M0 312L129 312L129 281L257 281L257 270L386 270L386 341L514 341L514 253L643 253L643 280L771 280L771 260L900 260L900 263L900 601L900 601L771 601L771 601L643 601L643 601L514 601L514 601L386 601L386 601L257 601L257 601L129 601L129 601L0 601Z" fill="#9900ff"></path><path d="M0 357L129 357L129 451L257 451L257 368L386 368L386 348L514 348L514 377L643 377L643 414L771 414L771 359L900 359L900 379L900 601L900 601L771 601L771 601L643 601L643 601L514 601L514 601L386 601L386 601L257 601L257 601L129 601L129 601L0 601Z" fill="#7700c6"></path><path d="M0 482L129 482L129 542L257 542L257 482L386 482L386 481L514 481L514 473L643 473L643 531L771 531L771 545L900 545L900 447L900 601L900 601L771 601L771 601L643 601L643 601L514 601L514 601L386 601L386 601L257 601L257 601L129 601L129 601L0 601Z" fill="#560090"></path></svg>